<svg width="12" height="24" viewBox="0 0 12 24" fill="none" xmlns="http://www.w3.org/2000/svg">
<path d="M6.59066 21.3189C8.1515 21.3189 9.4168 20.0536 9.4168 18.4928C9.4168 16.9319 8.1515 15.6666 6.59066 15.6666C5.02983 15.6666 3.76453 16.9319 3.76453 18.4928C3.76453 20.0536 5.02983 21.3189 6.59066 21.3189Z" fill="black"/>
<path d="M6.0585 15.3079C7.61933 15.3079 8.88464 14.0426 8.88464 12.4818C8.88464 10.9209 7.61933 9.65564 6.0585 9.65564C4.49767 9.65564 3.23236 10.9209 3.23236 12.4818C3.23236 14.0426 4.49767 15.3079 6.0585 15.3079Z" fill="black"/>
<path d="M5.76016 9.05486C7.32099 9.05486 8.5863 7.78956 8.5863 6.22873C8.5863 4.66789 7.32099 3.40259 5.76016 3.40259C4.19933 3.40259 2.93402 4.66789 2.93402 6.22873C2.93402 7.78956 4.19933 9.05486 5.76016 9.05486Z" fill="black"/>
<path d="M1.80528 2.53033L2.82356 20.4706C2.82356 20.4706 3.88238 22.3569 6.35297 22.5882C6.35297 22.5882 8.11768 22.5882 9.1765 21.8823C9.1765 21.8823 10.2353 21.2546 10.5883 19.7647L9.00166 3.11088L8.9694 1.98204H9.17501C9.17501 1.98204 9.41288 1.09106 8.73154 1.05881C8.73154 1.05881 4.86122 0.889479 1.98267 1.50228C1.98267 1.50228 1.26102 1.60307 1.52711 2.41745L1.80528 2.53033Z" stroke="black" stroke-miterlimit="10"/>
<path d="M1.71243 2.76563C1.71243 2.76563 1.25686 1.8424 2.15187 1.6771C2.15187 1.6771 4.43778 1.06833 9.03781 1.20541C9.03781 1.20541 9.56192 1.26991 9.3805 2.23346H9.17086C9.17086 2.23346 5.76014 2.01172 1.71243 2.76563Z" fill="black"/>
</svg>
