<svg viewBox="0 0 24 24" fill="none" xmlns="http://www.w3.org/2000/svg"><path d="M12.59 21.319a2.826 2.826 0 1 0 0-5.652 2.826 2.826 0 0 0 0 5.652zm-.531-6.011a2.826 2.826 0 1 0 0-5.652 2.826 2.826 0 0 0 0 5.652zm-.299-6.253a2.826 2.826 0 1 0 0-5.652 2.826 2.826 0 0 0 0 5.652z" fill="currentColor"/><path d="m7.805 2.53 1.019 17.94s1.058 1.887 3.529 2.118c0 0 1.765 0 2.824-.706 0 0 1.058-.627 1.411-2.117L15.002 3.11l-.033-1.129h.206s.238-.89-.444-.923c0 0-3.87-.17-6.748.443 0 0-.722.101-.456.915l.278.113z" stroke="currentColor" stroke-miterlimit="10"/><path d="M7.712 2.766s-.455-.924.44-1.089c0 0 2.286-.609 6.886-.472 0 0 .524.065.342 1.028h-.21s-3.41-.221-7.458.533z" fill="currentColor"/></svg>