<svg viewBox="0 0 24 24" xmlns="http://www.w3.org/2000/svg"><path d="M21.75 3h-4.5c-.017 0-.03.008-.046.009-.488-.843-1.025-1.307-1.064-1.34a.752.752 0 0 0-.476-.169h-7.33a.745.745 0 0 0-.474.17c-.039.032-.577.497-1.064 1.34C6.78 3.008 6.766 3 6.75 3h-4.5a.748.748 0 0 0-.746.833c.256 2.295 1.926 6.703 6.386 7.33.486.694 1.06 1.394 1.733 2.103.036.038.084.059.126.088V15h-1.5a.75.75 0 0 0-.75.75V18H6a.75.75 0 0 0-.75.75v3c0 .415.336.75.75.75h12a.75.75 0 0 0 .75-.75v-3A.75.75 0 0 0 18 18h-1.5v-2.25a.75.75 0 0 0-.75-.75h-1.5v-1.646c.043-.029.09-.05.126-.087a18.473 18.473 0 0 0 1.733-2.102c4.46-.628 6.131-5.036 6.386-7.332A.748.748 0 0 0 21.75 3zM3.152 4.5h3.042c-.087.34-.157.698-.182 1.097-.076 1.208.194 2.46.801 3.746C4.39 8.362 3.472 5.83 3.153 4.5zM17.25 21H6.75v-1.5h10.5V21zM15 18H9v-1.5h6V18zm-3.75-3v-1.5h1.5V15h-1.5zm2.258-3h-3.016C8.405 9.736 7.401 7.625 7.508 5.723A4.345 4.345 0 0 1 8.636 3h6.728a4.343 4.343 0 0 1 1.128 2.724c.106 1.901-.898 4.012-2.985 6.276zm3.682-2.663c.606-1.284.874-2.534.798-3.74a5.862 5.862 0 0 0-.181-1.097h3.035c-.328 1.324-1.259 3.852-3.652 4.837z"/></svg>