<svg width="22" height="22" viewBox="0 0 22 22" fill="none" xmlns="http://www.w3.org/2000/svg">
<path d="M20.75 2H16.25C16.2335 2 16.22 2.00825 16.2043 2.009C15.716 1.166 15.179 0.70175 15.14 0.6695C15.0058 0.56 14.8378 0.5 14.6645 0.5H7.33475C7.1615 0.5 6.9935 0.56 6.86 0.67025C6.821 0.7025 6.28325 1.16675 5.79575 2.00975C5.78 2.00825 5.7665 2 5.75 2H1.25C1.03625 2 0.833001 2.09075 0.691251 2.24975C0.548751 2.40875 0.481251 2.621 0.504501 2.8325C0.759501 5.12825 2.42975 9.536 6.89 10.1637C7.376 10.8568 7.94975 11.5573 8.62325 12.266C8.65925 12.3042 8.70725 12.3245 8.74925 12.3538V14H7.24925C6.83525 14 6.49925 14.3352 6.49925 14.75V17H5C4.586 17 4.25 17.3353 4.25 17.75V20.75C4.25 21.1647 4.586 21.5 5 21.5H17C17.414 21.5 17.75 21.1647 17.75 20.75V17.75C17.75 17.3353 17.414 17 17 17H15.5V14.75C15.5 14.3352 15.164 14 14.75 14H13.25V12.3545C13.2928 12.3252 13.34 12.3042 13.376 12.2667C14.0488 11.5587 14.6225 10.8575 15.1093 10.1645C19.5695 9.53675 21.2405 5.129 21.4948 2.83325C21.5188 2.62175 21.4505 2.4095 21.308 2.2505C21.167 2.09075 20.9638 2 20.75 2ZM2.15225 3.5H5.19425C5.10725 3.83975 5.03675 4.19825 5.012 4.59725C4.93625 5.8055 5.2055 7.0565 5.813 8.34275C3.38975 7.36175 2.47175 4.8305 2.15225 3.5ZM16.25 20H5.75V18.5H7.25H14.75H16.25V20ZM14 17H8V15.5H9.5H12.5H14V17ZM10.25 14V12.5H11.75V14H10.25ZM12.5075 11H12.5H9.5H9.4925C7.40525 8.73575 6.401 6.62525 6.5075 4.72325C6.58775 3.28025 7.29875 2.35925 7.6355 2H14.3638C14.7028 2.3615 15.4123 3.28175 15.4925 4.724C15.5983 6.62525 14.594 8.73575 12.5075 11ZM16.19 8.33675C16.796 7.05275 17.0638 5.80325 16.988 4.5965C16.9633 4.19825 16.8928 3.83975 16.8065 3.5H19.8418C19.514 4.82375 18.5833 7.352 16.19 8.33675Z" fill="#212329"/>
</svg>
