<svg width="20" height="21" viewBox="0 0 20 21" fill="none" xmlns="http://www.w3.org/2000/svg">
<path d="M16 20.5H4.00003C3.00547 20.5 2.05164 20.1049 1.34838 19.4017C0.645117 18.6984 0.250029 17.7446 0.250029 16.75C0.249248 16.6605 0.264488 16.5716 0.295028 16.4875C1.01578 14.5862 2.29628 12.9483 3.96742 11.79C5.63856 10.6317 7.62174 10.0076 9.65503 10H10.345C12.3783 10.0076 14.3615 10.6317 16.0326 11.79C17.7038 12.9483 18.9843 14.5862 19.705 16.4875C19.7356 16.5716 19.7508 16.6605 19.75 16.75C19.75 17.7446 19.3549 18.6984 18.6517 19.4017C17.9484 20.1049 16.9946 20.5 16 20.5ZM1.75003 16.8775C1.78263 17.4519 2.034 17.9919 2.45247 18.3867C2.87095 18.7815 3.42474 19.0009 4.00003 19H16C16.5753 19.0009 17.1291 18.7815 17.5476 18.3867C17.9661 17.9919 18.2174 17.4519 18.25 16.8775C17.6188 15.2951 16.5289 13.9375 15.1203 12.9793C13.7116 12.0211 12.0487 11.5059 10.345 11.5H9.65503C7.95138 11.5059 6.28841 12.0211 4.87978 12.9793C3.47116 13.9375 2.38122 15.2951 1.75003 16.8775Z" fill="#212329"/>
<path d="M10 9.25C9.11001 9.25 8.23998 8.98608 7.49996 8.49162C6.75994 7.99715 6.18317 7.29434 5.84257 6.47208C5.50198 5.64981 5.41286 4.74501 5.5865 3.8721C5.76013 2.99918 6.18871 2.19736 6.81805 1.56802C7.44738 0.938685 8.24921 0.510102 9.12212 0.336468C9.99504 0.162835 10.8998 0.25195 11.7221 0.592544C12.5444 0.933138 13.2472 1.50991 13.7416 2.24994C14.2361 2.98996 14.5 3.85999 14.5 4.75C14.5 5.94348 14.0259 7.08807 13.182 7.93198C12.3381 8.7759 11.1935 9.25 10 9.25ZM10 1.75C9.40669 1.75 8.82667 1.92595 8.33332 2.25559C7.83997 2.58524 7.45545 3.05377 7.22839 3.60195C7.00133 4.15013 6.94192 4.75333 7.05767 5.33527C7.17343 5.91722 7.45915 6.45177 7.87871 6.87132C8.29827 7.29088 8.83282 7.5766 9.41476 7.69236C9.9967 7.80811 10.5999 7.7487 11.1481 7.52164C11.6963 7.29458 12.1648 6.91006 12.4944 6.41671C12.8241 5.92336 13 5.34335 13 4.75C13 3.95435 12.684 3.19129 12.1213 2.62868C11.5587 2.06607 10.7957 1.75 10 1.75Z" fill="#212329"/>
<path d="M16 20.5H4.00003C3.00547 20.5 2.05164 20.1049 1.34838 19.4017C0.645117 18.6984 0.250029 17.7446 0.250029 16.75C0.249248 16.6605 0.264488 16.5716 0.295028 16.4875C1.01578 14.5862 2.29628 12.9483 3.96742 11.79C5.63856 10.6317 7.62174 10.0076 9.65503 10H10.345C12.3783 10.0076 14.3615 10.6317 16.0326 11.79C17.7038 12.9483 18.9843 14.5862 19.705 16.4875C19.7356 16.5716 19.7508 16.6605 19.75 16.75C19.75 17.7446 19.3549 18.6984 18.6517 19.4017C17.9484 20.1049 16.9946 20.5 16 20.5ZM1.75003 16.8775C1.78263 17.4519 2.034 17.9919 2.45247 18.3867C2.87095 18.7815 3.42474 19.0009 4.00003 19H16C16.5753 19.0009 17.1291 18.7815 17.5476 18.3867C17.9661 17.9919 18.2174 17.4519 18.25 16.8775C17.6188 15.2951 16.5289 13.9375 15.1203 12.9793C13.7116 12.0211 12.0487 11.5059 10.345 11.5H9.65503C7.95138 11.5059 6.28841 12.0211 4.87978 12.9793C3.47116 13.9375 2.38122 15.2951 1.75003 16.8775Z" fill="#212329"/>
</svg>
