<svg viewBox="0 0 24 24" xmlns="http://www.w3.org/2000/svg"><path d="M18 22.5H6a3.75 3.75 0 0 1-3.75-3.75.75.75 0 0 1 .045-.262A10.05 10.05 0 0 1 11.655 12h.69a10.05 10.05 0 0 1 9.36 6.488c.03.084.046.172.045.262A3.75 3.75 0 0 1 18 22.5zM3.75 18.878A2.25 2.25 0 0 0 6 21h12a2.25 2.25 0 0 0 2.25-2.122 8.542 8.542 0 0 0-7.905-5.378h-.69a8.543 8.543 0 0 0-7.905 5.378zM12 11.25a4.5 4.5 0 1 1 0-9 4.5 4.5 0 0 1 0 9zm0-7.5a3 3 0 1 0 0 6 3 3 0 0 0 0-6z"/><path d="M18 22.5H6a3.75 3.75 0 0 1-3.75-3.75.75.75 0 0 1 .045-.262A10.05 10.05 0 0 1 11.655 12h.69a10.05 10.05 0 0 1 9.36 6.488c.03.084.046.172.045.262A3.75 3.75 0 0 1 18 22.5zM3.75 18.878A2.25 2.25 0 0 0 6 21h12a2.25 2.25 0 0 0 2.25-2.122 8.542 8.542 0 0 0-7.905-5.378h-.69a8.543 8.543 0 0 0-7.905 5.378z"/></svg>